<svg width="315" height="93" viewBox="0 0 315 93" fill="none" xmlns="http://www.w3.org/2000/svg">
<path d="M38.9168 44.1168C40.2481 43.3435 41.9173 44.3013 41.9214 45.8409L42.006 77.8838C42.0101 79.4234 40.3459 80.39 39.0106 79.6237L11.2184 63.6756C9.88299 62.9093 9.87791 60.9848 11.2092 60.2115L38.9168 44.1168Z" fill="#23B5B5"/>
<path d="M23.3634 48.4883C22.0347 49.266 20.3623 48.3137 20.3532 46.7741L20.1626 14.7318C20.1534 13.1922 21.8143 12.22 23.1522 12.9819L50.997 28.838C52.3349 29.5999 52.3464 31.5243 51.0176 32.3021L23.3634 48.4883Z" fill="#23B5B5"/>
<path d="M50.958 37.066H78.798V42.46H67.546V79H61.92V42.46H50.958V37.066ZM103.624 37.066C106.408 37.066 108.921 37.5687 111.164 38.574C113.406 39.5407 115.185 41.01 116.5 42.982C117.814 44.9153 118.472 47.274 118.472 50.058C118.472 52.4553 117.93 54.7753 116.848 57.018C115.804 59.2607 114.025 60.962 111.512 62.122L122.068 79H115.514L105.596 63.514C105.17 63.5527 104.726 63.572 104.262 63.572H98.0558V79H92.4298V37.066H103.624ZM104.146 58.12C106.388 58.12 108.109 57.714 109.308 56.902C110.545 56.0513 111.415 55.0267 111.918 53.828C112.42 52.5907 112.672 51.4113 112.672 50.29C112.672 49.1687 112.401 48.0087 111.86 46.81C111.318 45.6113 110.448 44.5867 109.25 43.736C108.09 42.8853 106.524 42.46 104.552 42.46H98.0558V58.12H104.146ZM135.359 37.066H140.985V79H135.359V37.066ZM168.923 37.066C173.447 37.066 177.004 38.2067 179.595 40.488C182.185 42.7693 183.481 45.9593 183.481 50.058C183.481 51.7207 183.229 53.364 182.727 54.988C182.224 56.5733 181.412 58.0233 180.291 59.338C179.208 60.614 177.777 61.658 175.999 62.47C174.22 63.2433 172.055 63.63 169.503 63.63H163.297V79H157.671V37.066H168.923ZM169.503 58.12C171.127 58.12 172.48 57.8687 173.563 57.366C174.645 56.8247 175.496 56.1287 176.115 55.278C176.772 54.4273 177.236 53.5573 177.507 52.668C177.777 51.74 177.913 50.9087 177.913 50.174C177.913 49.0527 177.642 47.8927 177.101 46.694C176.598 45.4953 175.747 44.49 174.549 43.678C173.389 42.866 171.803 42.46 169.793 42.46H163.297V58.12H169.503ZM208.057 37.066C212.581 37.066 216.138 38.2067 218.729 40.488C221.32 42.7693 222.615 45.9593 222.615 50.058C222.615 51.7207 222.364 53.364 221.861 54.988C221.358 56.5733 220.546 58.0233 219.425 59.338C218.342 60.614 216.912 61.658 215.133 62.47C213.354 63.2433 211.189 63.63 208.637 63.63H202.431V79H196.805V37.066H208.057ZM208.637 58.12C210.261 58.12 211.614 57.8687 212.697 57.366C213.78 56.8247 214.63 56.1287 215.249 55.278C215.906 54.4273 216.37 53.5573 216.641 52.668C216.912 51.74 217.047 50.9087 217.047 50.174C217.047 49.0527 216.776 47.8927 216.235 46.694C215.732 45.4953 214.882 44.49 213.683 43.678C212.523 42.866 210.938 42.46 208.927 42.46H202.431V58.12H208.637ZM235.939 37.066H263.199V42.46H241.565V55.22H260.879V60.614H241.565V73.548H264.011V79H235.939V37.066ZM289.666 37.066C292.45 37.066 294.963 37.5687 297.206 38.574C299.448 39.5407 301.227 41.01 302.542 42.982C303.856 44.9153 304.514 47.274 304.514 50.058C304.514 52.4553 303.972 54.7753 302.89 57.018C301.846 59.2607 300.067 60.962 297.554 62.122L308.11 79H301.556L291.638 63.514C291.212 63.5527 290.768 63.572 290.304 63.572H284.098V79H278.472V37.066H289.666ZM290.188 58.12C292.43 58.12 294.151 57.714 295.35 56.902C296.587 56.0513 297.457 55.0267 297.96 53.828C298.462 52.5907 298.714 51.4113 298.714 50.29C298.714 49.1687 298.443 48.0087 297.902 46.81C297.36 45.6113 296.49 44.5867 295.292 43.736C294.132 42.8853 292.566 42.46 290.594 42.46H284.098V58.12H290.188Z" fill="black"/>
</svg>
